<svg xmlns="http://www.w3.org/2000/svg" width="595" height="601" viewBox="0 0 595 601" fill="none"><path d="M590.083 325.825L41.1836 452.11C75.07 510.318 128.698 557.433 196.573 582.161C351.046 638.333 521.292 557.433 576.956 401.637C586.012 376.298 591.406 350.655 593.543 325.011L590.185 325.825H590.083Z" fill="#0F3063"></path><path d="M543.77 132.58C509.68 81.3943 459.817 40.3846 397.946 17.8954C276.24 -26.4724 144.765 14.4356 67.2227 109.989L74.3459 110.294L543.77 132.478V132.58Z" fill="#FF7369"></path><path d="M543.77 132.582L74.3459 110.296L67.2227 109.991L593.429 324.91C599.229 256.018 580.912 188.245 543.77 132.48" fill="#52B5D9"></path><path d="M543.764 132.58L74.3398 110.294L543.764 132.58Z" fill="#52B5D9"></path><path d="M593.428 325.01L67.222 110.09C46.361 135.734 29.4686 165.347 17.6643 198.419C-13.4745 285.73 -2.07731 378.027 41.1711 452.211L590.07 325.926L593.428 325.111V325.01Z" fill="#1478A7"></path><path d="M41.1836 452.111L590.083 325.826L41.1836 452.111Z" fill="#1478A7"></path><path d="M145.774 312.188H115.348V203.813H145.774V312.188ZM130.917 190.075C125.625 190.075 121.148 188.04 117.688 183.969C115.246 181.12 113.719 177.355 113.516 173.59C113.211 167.179 115.856 161.887 121.453 157.715C122.98 156.596 124.71 155.781 126.541 155.476C133.258 154.153 138.753 155.68 143.23 160.259C147.504 164.635 149.132 170.13 147.911 176.643C147.606 178.576 146.792 180.408 145.672 181.934C141.805 187.327 137.023 190.075 131.019 190.075" fill="white"></path><path d="M168.289 257.951C168.289 242.382 173.784 229.051 184.775 217.959C195.765 206.867 208.994 201.372 224.563 201.372C240.133 201.372 253.565 207.478 265.98 219.791L244.814 241.669C238.301 234.851 231.585 231.392 224.563 231.392C217.542 231.392 211.029 233.936 205.839 239.125C200.853 244.213 198.309 250.421 198.309 257.748C198.309 265.074 200.853 271.587 205.839 276.573C211.029 281.763 217.236 284.409 224.563 284.409C231.89 284.409 238.606 281.153 245.017 274.538L266.082 295.806C253.769 308.221 239.929 314.429 224.461 314.429C208.994 314.429 195.663 308.934 184.673 297.842C173.683 286.75 168.188 273.419 168.188 257.646" fill="white"></path><path d="M333.536 285.323C340.557 285.323 346.663 282.677 351.853 277.385C356.839 272.094 359.485 265.785 359.79 258.56V257.746C359.688 250.317 357.042 244.008 351.853 238.716C346.663 233.425 340.659 230.677 333.536 230.677C326.412 230.677 320.307 233.425 315.32 238.92C310.131 244.415 307.587 250.724 307.587 257.949C307.587 265.174 310.131 271.585 315.32 277.182C320.307 282.677 326.412 285.323 333.536 285.323ZM359.688 203.812H390.115V312.188H359.688V297.839C353.684 308.728 343.406 314.223 328.855 314.223C314.303 314.223 302.498 308.728 292.322 297.839C282.248 286.951 277.262 273.62 277.262 257.847C277.262 242.074 282.248 228.744 292.119 217.855C302.091 206.967 314.608 201.472 329.465 201.472C335.266 201.472 340.964 202.693 346.561 205.237C352.056 207.781 356.534 211.241 359.79 215.82V203.71L359.688 203.812Z" fill="white"></path><path d="M456.575 203.812H478.963V234.137H456.575V312.188H426.149V234.137H405.898V203.812H426.149V168.807H456.575V203.812Z" fill="white"></path><path d="M203.978 377.926V442.85H173.958V379.351C173.958 374.161 172.635 370.09 169.888 367.139C167.14 364.188 163.782 362.764 159.508 362.764C155.234 362.764 151.876 364.29 149.129 367.241C146.381 370.294 145.058 374.263 145.058 379.351V442.85H115.242V334.474H145.058V348.008C147.907 341.597 152.792 336.916 159.915 334.067C163.477 332.642 167.242 332.032 171.109 332.032H172.33C176.095 332.032 180.573 333.151 185.763 335.492C190.952 337.832 195.023 341.903 198.177 347.805C205.911 337.323 216.291 332.032 229.418 332.032H229.825C241.324 332.337 249.974 337.12 255.774 346.38C260.557 353.605 262.897 363.374 262.897 375.687V442.85H232.878V379.351C232.878 374.161 231.555 370.09 228.808 367.139C226.06 364.188 222.702 362.764 218.428 362.764C214.459 362.764 211.203 364.086 208.455 366.834C205.708 369.582 204.283 373.245 203.978 377.926Z" fill="white"></path><path d="M334.77 415.985C341.791 415.985 347.897 413.339 353.087 408.047C358.073 402.756 360.719 396.446 361.024 389.221V388.407C360.923 380.979 358.277 374.67 353.087 369.378C347.897 364.086 341.893 361.339 334.77 361.339C327.647 361.339 321.541 364.086 316.555 369.48C311.365 374.975 308.821 381.284 308.821 388.509C308.821 395.734 311.365 402.145 316.555 407.742C321.541 413.237 327.647 415.883 334.77 415.883M360.923 334.372H391.349V442.748H360.923V428.399C354.919 439.288 344.641 444.783 330.089 444.783C315.537 444.783 303.733 439.288 293.557 428.399C283.482 417.511 278.496 404.18 278.496 388.407C278.496 372.634 283.482 359.202 293.353 348.415C303.326 337.527 315.842 332.032 330.7 332.032C336.5 332.032 342.199 333.253 347.795 335.797C353.29 338.341 357.768 341.801 361.024 346.38V334.27L360.923 334.372Z" fill="white"></path><path d="M480.775 332.642L480.978 363.781C478.027 362.662 473.855 362.153 468.564 362.153C461.542 362.153 455.945 364.697 451.875 369.785C447.804 374.873 445.769 381.691 445.769 390.239V442.85H415.953V334.474H445.769V351.672C451.468 338.544 460.626 332.032 473.346 332.032C475.585 332.032 478.027 332.235 480.673 332.642" fill="white"></path></svg>