<svg xmlns="http://www.w3.org/2000/svg" width="125" height="125" viewBox="0 0 125 125" fill="none"><circle cx="62.5" cy="62.5" r="62.5" fill="#0F3063"></circle><path d="M49.4911 74L47.8951 71.592L46.4811 74H44.3811L46.9151 70.108L44.3531 66.244H46.5651L48.1471 68.638L49.5751 66.244H51.6751L49.1271 70.108L51.7031 74H49.4911ZM51.7036 70.094C51.7036 69.31 51.8576 68.6147 52.1656 68.008C52.483 67.4013 52.9076 66.9347 53.4396 66.608C53.981 66.2813 54.583 66.118 55.2456 66.118C55.8243 66.118 56.3283 66.2347 56.7576 66.468C57.1963 66.7013 57.5463 66.9953 57.8076 67.35V66.244H59.7816V74H57.8076V72.866C57.5556 73.23 57.2056 73.5333 56.7576 73.776C56.319 74.0093 55.8103 74.126 55.2316 74.126C54.5783 74.126 53.981 73.958 53.4396 73.622C52.9076 73.286 52.483 72.8147 52.1656 72.208C51.8576 71.592 51.7036 70.8873 51.7036 70.094ZM57.8076 70.122C57.8076 69.646 57.7143 69.24 57.5276 68.904C57.341 68.5587 57.089 68.2973 56.7716 68.12C56.4543 67.9333 56.1136 67.84 55.7496 67.84C55.3856 67.84 55.0496 67.9287 54.7416 68.106C54.4336 68.2833 54.1816 68.5447 53.9856 68.89C53.799 69.226 53.7056 69.6273 53.7056 70.094C53.7056 70.5607 53.799 70.9713 53.9856 71.326C54.1816 71.6713 54.4336 71.9373 54.7416 72.124C55.059 72.3107 55.395 72.404 55.7496 72.404C56.1136 72.404 56.4543 72.3153 56.7716 72.138C57.089 71.9513 57.341 71.69 57.5276 71.354C57.7143 71.0087 57.8076 70.598 57.8076 70.122ZM63.0959 67.448C63.3479 67.0373 63.6746 66.7153 64.0759 66.482C64.4866 66.2487 64.9533 66.132 65.4759 66.132V68.19H64.9579C64.3419 68.19 63.8753 68.3347 63.5579 68.624C63.2499 68.9133 63.0959 69.4173 63.0959 70.136V74H61.1359V66.244H63.0959V67.448ZM70.5201 74L68.9241 71.592L67.5101 74H65.4101L67.9441 70.108L65.3821 66.244H67.5941L69.1761 68.638L70.6041 66.244H72.7041L70.1561 70.108L72.7321 74H70.5201ZM72.7326 70.094C72.7326 69.31 72.8866 68.6147 73.1946 68.008C73.512 67.4013 73.9366 66.9347 74.4686 66.608C75.01 66.2813 75.612 66.118 76.2746 66.118C76.8533 66.118 77.3573 66.2347 77.7866 66.468C78.2253 66.7013 78.5753 66.9953 78.8366 67.35V66.244H80.8106V74H78.8366V72.866C78.5846 73.23 78.2346 73.5333 77.7866 73.776C77.348 74.0093 76.8393 74.126 76.2606 74.126C75.6073 74.126 75.01 73.958 74.4686 73.622C73.9366 73.286 73.512 72.8147 73.1946 72.208C72.8866 71.592 72.7326 70.8873 72.7326 70.094ZM78.8366 70.122C78.8366 69.646 78.7433 69.24 78.5566 68.904C78.37 68.5587 78.118 68.2973 77.8006 68.12C77.4833 67.9333 77.1426 67.84 76.7786 67.84C76.4146 67.84 76.0786 67.9287 75.7706 68.106C75.4626 68.2833 75.2106 68.5447 75.0146 68.89C74.828 69.226 74.7346 69.6273 74.7346 70.094C74.7346 70.5607 74.828 70.9713 75.0146 71.326C75.2106 71.6713 75.4626 71.9373 75.7706 72.124C76.088 72.3107 76.424 72.404 76.7786 72.404C77.1426 72.404 77.4833 72.3153 77.8006 72.138C78.118 71.9513 78.37 71.69 78.5566 71.354C78.7433 71.0087 78.8366 70.598 78.8366 70.122ZM19.7192 88.126C18.9726 88.126 18.3006 87.9627 17.7032 87.636C17.1059 87.3 16.6346 86.8287 16.2892 86.222C15.9532 85.6153 15.7852 84.9153 15.7852 84.122C15.7852 83.3287 15.9579 82.6287 16.3032 82.022C16.6579 81.4153 17.1386 80.9487 17.7452 80.622C18.3519 80.286 19.0286 80.118 19.7752 80.118C20.5219 80.118 21.1986 80.286 21.8052 80.622C22.4119 80.9487 22.8879 81.4153 23.2332 82.022C23.5879 82.6287 23.7652 83.3287 23.7652 84.122C23.7652 84.9153 23.5832 85.6153 23.2192 86.222C22.8646 86.8287 22.3792 87.3 21.7632 87.636C21.1566 87.9627 20.4752 88.126 19.7192 88.126ZM19.7192 86.418C20.0739 86.418 20.4052 86.334 20.7132 86.166C21.0306 85.9887 21.2826 85.7273 21.4692 85.382C21.6559 85.0367 21.7492 84.6167 21.7492 84.122C21.7492 83.3847 21.5532 82.82 21.1612 82.428C20.7786 82.0267 20.3072 81.826 19.7472 81.826C19.1872 81.826 18.7159 82.0267 18.3332 82.428C17.9599 82.82 17.7732 83.3847 17.7732 84.122C17.7732 84.8593 17.9552 85.4287 18.3192 85.83C18.6926 86.222 19.1592 86.418 19.7192 86.418ZM26.603 81.378C26.855 81.0047 27.2003 80.7013 27.639 80.468C28.087 80.2347 28.5956 80.118 29.165 80.118C29.8276 80.118 30.425 80.2813 30.957 80.608C31.4983 80.9347 31.923 81.4013 32.231 82.008C32.5483 82.6053 32.707 83.3007 32.707 84.094C32.707 84.8873 32.5483 85.592 32.231 86.208C31.923 86.8147 31.4983 87.286 30.957 87.622C30.425 87.958 29.8276 88.126 29.165 88.126C28.5863 88.126 28.0776 88.014 27.639 87.79C27.2096 87.5567 26.8643 87.258 26.603 86.894V88H24.643V77.64H26.603V81.378ZM30.705 84.094C30.705 83.6273 30.607 83.226 30.411 82.89C30.2243 82.5447 29.9723 82.2833 29.655 82.106C29.347 81.9287 29.011 81.84 28.647 81.84C28.2923 81.84 27.9563 81.9333 27.639 82.12C27.331 82.2973 27.079 82.5587 26.883 82.904C26.6963 83.2493 26.603 83.6553 26.603 84.122C26.603 84.5887 26.6963 84.9947 26.883 85.34C27.079 85.6853 27.331 85.9513 27.639 86.138C27.9563 86.3153 28.2923 86.404 28.647 86.404C29.011 86.404 29.347 86.3107 29.655 86.124C29.9723 85.9373 30.2243 85.6713 30.411 85.326C30.607 84.9807 30.705 84.57 30.705 84.094ZM36.5392 88.126C35.9046 88.126 35.3352 88.014 34.8312 87.79C34.3272 87.5567 33.9259 87.244 33.6272 86.852C33.3379 86.46 33.1792 86.026 33.1512 85.55H35.1252C35.1626 85.8487 35.3072 86.096 35.5592 86.292C35.8206 86.488 36.1426 86.586 36.5252 86.586C36.8986 86.586 37.1879 86.5113 37.3932 86.362C37.6079 86.2127 37.7152 86.0213 37.7152 85.788C37.7152 85.536 37.5846 85.3493 37.3232 85.228C37.0712 85.0973 36.6652 84.9573 36.1052 84.808C35.5266 84.668 35.0506 84.5233 34.6772 84.374C34.3132 84.2247 33.9959 83.996 33.7252 83.688C33.4639 83.38 33.3332 82.9647 33.3332 82.442C33.3332 82.0127 33.4546 81.6207 33.6972 81.266C33.9492 80.9113 34.3039 80.6313 34.7612 80.426C35.2279 80.2207 35.7739 80.118 36.3992 80.118C37.3232 80.118 38.0606 80.3513 38.6112 80.818C39.1619 81.2753 39.4652 81.896 39.5212 82.68H37.6452C37.6172 82.372 37.4866 82.1293 37.2532 81.952C37.0292 81.7653 36.7259 81.672 36.3432 81.672C35.9886 81.672 35.7132 81.7373 35.5172 81.868C35.3306 81.9987 35.2372 82.1807 35.2372 82.414C35.2372 82.6753 35.3679 82.876 35.6292 83.016C35.8906 83.1467 36.2966 83.282 36.8472 83.422C37.4072 83.562 37.8692 83.7067 38.2332 83.856C38.5972 84.0053 38.9099 84.2387 39.1712 84.556C39.4419 84.864 39.5819 85.2747 39.5912 85.788C39.5912 86.236 39.4652 86.6373 39.2132 86.992C38.9706 87.3467 38.6159 87.6267 38.1492 87.832C37.6919 88.028 37.1552 88.126 36.5392 88.126ZM47.8501 83.954C47.8501 84.234 47.8315 84.486 47.7941 84.71H42.1241C42.1708 85.27 42.3668 85.7087 42.7121 86.026C43.0575 86.3433 43.4821 86.502 43.9861 86.502C44.7141 86.502 45.2321 86.1893 45.5401 85.564H47.6541C47.4301 86.3107 47.0008 86.9267 46.3661 87.412C45.7315 87.888 44.9521 88.126 44.0281 88.126C43.2815 88.126 42.6095 87.9627 42.0121 87.636C41.4241 87.3 40.9621 86.8287 40.6261 86.222C40.2995 85.6153 40.1361 84.9153 40.1361 84.122C40.1361 83.3193 40.2995 82.6147 40.6261 82.008C40.9528 81.4013 41.4101 80.9347 41.9981 80.608C42.5861 80.2813 43.2628 80.118 44.0281 80.118C44.7655 80.118 45.4235 80.2767 46.0021 80.594C46.5901 80.9113 47.0428 81.364 47.3601 81.952C47.6868 82.5307 47.8501 83.198 47.8501 83.954ZM45.8201 83.394C45.8108 82.89 45.6288 82.4887 45.2741 82.19C44.9195 81.882 44.4855 81.728 43.9721 81.728C43.4868 81.728 43.0761 81.8773 42.7401 82.176C42.4135 82.4653 42.2128 82.8713 42.1381 83.394H45.8201ZM50.6808 81.448C50.9328 81.0373 51.2594 80.7153 51.6608 80.482C52.0714 80.2487 52.5381 80.132 53.0608 80.132V82.19H52.5428C51.9268 82.19 51.4601 82.3347 51.1428 82.624C50.8348 82.9133 50.6808 83.4173 50.6808 84.136V88H48.7208V80.244H50.6808V81.448ZM57.0549 86.194L59.0149 80.244H61.1009L58.2309 88H55.8509L52.9949 80.244H55.0949L57.0549 86.194ZM61.1378 84.094C61.1378 83.31 61.2918 82.6147 61.5998 82.008C61.9171 81.4013 62.3418 80.9347 62.8738 80.608C63.4151 80.2813 64.0171 80.118 64.6798 80.118C65.2584 80.118 65.7624 80.2347 66.1918 80.468C66.6304 80.7013 66.9804 80.9953 67.2418 81.35V80.244H69.2158V88H67.2418V86.866C66.9898 87.23 66.6398 87.5333 66.1918 87.776C65.7531 88.0093 65.2444 88.126 64.6658 88.126C64.0124 88.126 63.4151 87.958 62.8738 87.622C62.3418 87.286 61.9171 86.8147 61.5998 86.208C61.2918 85.592 61.1378 84.8873 61.1378 84.094ZM67.2418 84.122C67.2418 83.646 67.1484 83.24 66.9618 82.904C66.7751 82.5587 66.5231 82.2973 66.2058 82.12C65.8884 81.9333 65.5478 81.84 65.1838 81.84C64.8198 81.84 64.4838 81.9287 64.1758 82.106C63.8678 82.2833 63.6158 82.5447 63.4198 82.89C63.2331 83.226 63.1398 83.6273 63.1398 84.094C63.1398 84.5607 63.2331 84.9713 63.4198 85.326C63.6158 85.6713 63.8678 85.9373 64.1758 86.124C64.4931 86.3107 64.8291 86.404 65.1838 86.404C65.5478 86.404 65.8884 86.3153 66.2058 86.138C66.5231 85.9513 66.7751 85.69 66.9618 85.354C67.1484 85.0087 67.2418 84.598 67.2418 84.122ZM70.0661 84.122C70.0661 83.3193 70.2294 82.6193 70.5561 82.022C70.8827 81.4153 71.3354 80.9487 71.9141 80.622C72.4927 80.286 73.1554 80.118 73.9021 80.118C74.8634 80.118 75.6567 80.3607 76.2821 80.846C76.9167 81.322 77.3414 81.994 77.5561 82.862H75.4421C75.3301 82.526 75.1387 82.2647 74.8681 82.078C74.6067 81.882 74.2801 81.784 73.8881 81.784C73.3281 81.784 72.8847 81.9893 72.5581 82.4C72.2314 82.8013 72.0681 83.3753 72.0681 84.122C72.0681 84.8593 72.2314 85.4333 72.5581 85.844C72.8847 86.2453 73.3281 86.446 73.8881 86.446C74.6814 86.446 75.1994 86.0913 75.4421 85.382H77.5561C77.3414 86.222 76.9167 86.8893 76.2821 87.384C75.6474 87.8787 74.8541 88.126 73.9021 88.126C73.1554 88.126 72.4927 87.9627 71.9141 87.636C71.3354 87.3 70.8827 86.8333 70.5561 86.236C70.2294 85.6293 70.0661 84.9247 70.0661 84.122ZM79.4259 79.32C79.0806 79.32 78.7913 79.2127 78.5579 78.998C78.3339 78.774 78.2219 78.4987 78.2219 78.172C78.2219 77.8453 78.3339 77.5747 78.5579 77.36C78.7913 77.136 79.0806 77.024 79.4259 77.024C79.7713 77.024 80.0559 77.136 80.2799 77.36C80.5133 77.5747 80.6299 77.8453 80.6299 78.172C80.6299 78.4987 80.5133 78.774 80.2799 78.998C80.0559 79.2127 79.7713 79.32 79.4259 79.32ZM80.3919 80.244V88H78.4319V80.244H80.3919ZM85.2124 88.126C84.4658 88.126 83.7938 87.9627 83.1964 87.636C82.5991 87.3 82.1278 86.8287 81.7824 86.222C81.4464 85.6153 81.2784 84.9153 81.2784 84.122C81.2784 83.3287 81.4511 82.6287 81.7964 82.022C82.1511 81.4153 82.6318 80.9487 83.2384 80.622C83.8451 80.286 84.5218 80.118 85.2684 80.118C86.0151 80.118 86.6918 80.286 87.2984 80.622C87.9051 80.9487 88.3811 81.4153 88.7264 82.022C89.0811 82.6287 89.2584 83.3287 89.2584 84.122C89.2584 84.9153 89.0764 85.6153 88.7124 86.222C88.3578 86.8287 87.8724 87.3 87.2564 87.636C86.6498 87.9627 85.9684 88.126 85.2124 88.126ZM85.2124 86.418C85.5671 86.418 85.8984 86.334 86.2064 86.166C86.5238 85.9887 86.7758 85.7273 86.9624 85.382C87.1491 85.0367 87.2424 84.6167 87.2424 84.122C87.2424 83.3847 87.0464 82.82 86.6544 82.428C86.2718 82.0267 85.8004 81.826 85.2404 81.826C84.6804 81.826 84.2091 82.0267 83.8264 82.428C83.4531 82.82 83.2664 83.3847 83.2664 84.122C83.2664 84.8593 83.4484 85.4287 83.8124 85.83C84.1858 86.222 84.6524 86.418 85.2124 86.418ZM94.4342 80.132C95.3582 80.132 96.1048 80.426 96.6742 81.014C97.2435 81.5927 97.5282 82.4047 97.5282 83.45V88H95.5682V83.716C95.5682 83.1 95.4142 82.6287 95.1062 82.302C94.7982 81.966 94.3782 81.798 93.8462 81.798C93.3048 81.798 92.8755 81.966 92.5582 82.302C92.2502 82.6287 92.0962 83.1 92.0962 83.716V88H90.1362V80.244H92.0962V81.21C92.3575 80.874 92.6888 80.6127 93.0902 80.426C93.5008 80.23 93.9488 80.132 94.4342 80.132ZM98.328 84.094C98.328 83.31 98.482 82.6147 98.79 82.008C99.1073 81.4013 99.532 80.9347 100.064 80.608C100.605 80.2813 101.207 80.118 101.87 80.118C102.449 80.118 102.953 80.2347 103.382 80.468C103.821 80.7013 104.171 80.9953 104.432 81.35V80.244H106.406V88H104.432V86.866C104.18 87.23 103.83 87.5333 103.382 87.776C102.943 88.0093 102.435 88.126 101.856 88.126C101.203 88.126 100.605 87.958 100.064 87.622C99.532 87.286 99.1073 86.8147 98.79 86.208C98.482 85.592 98.328 84.8873 98.328 84.094ZM104.432 84.122C104.432 83.646 104.339 83.24 104.152 82.904C103.965 82.5587 103.713 82.2973 103.396 82.12C103.079 81.9333 102.738 81.84 102.374 81.84C102.01 81.84 101.674 81.9287 101.366 82.106C101.058 82.2833 100.806 82.5447 100.61 82.89C100.423 83.226 100.33 83.6273 100.33 84.094C100.33 84.5607 100.423 84.9713 100.61 85.326C100.806 85.6713 101.058 85.9373 101.366 86.124C101.683 86.3107 102.019 86.404 102.374 86.404C102.738 86.404 103.079 86.3153 103.396 86.138C103.713 85.9513 103.965 85.69 104.152 85.354C104.339 85.0087 104.432 84.598 104.432 84.122ZM109.72 77.64V88H107.76V77.64H109.72Z" fill="white"></path><path d="M52.6309 52.366C53.7974 51.1994 55.6898 51.1994 56.8538 52.366C58.0204 53.5325 59.9101 53.5325 61.0767 52.366C62.2406 51.1994 64.133 51.1994 65.2996 52.366C66.4636 53.5325 68.356 53.5325 69.5225 52.366C70.6865 51.1994 72.1246 51.666 73.2912 52.8326L72.4997 53.6091C72.0378 53.1472 71.2302 53.1472 70.7683 53.6091C69.8709 54.5065 68.678 55 67.4111 55C66.1416 55 64.9512 54.5038 64.0539 53.6091C63.592 53.1472 62.7843 53.1446 62.3225 53.6091C61.4251 54.5065 60.2321 55 58.9652 55C57.6957 55 56.5054 54.5038 55.608 53.6091C55.3758 53.3768 55.0696 53.2501 54.7423 53.2501C54.415 53.2501 54.1062 53.3795 53.874 53.6091L52.6309 52.366Z" fill="white"></path><mask id="path-4-outside-1_329_6029" maskUnits="userSpaceOnUse" x="47.335" y="14" width="31" height="31" fill="black"><rect fill="white" x="47.335" y="14" width="31" height="31"></rect><path fill-rule="evenodd" clip-rule="evenodd" d="M71.4263 29.1874L77.3234 35.0851L77.3239 35.0845C77.5376 35.2977 77.6548 35.5812 77.6548 35.8829C77.6548 36.1845 77.537 36.4681 77.3239 36.6812L73.8001 40.2053C73.5803 40.4258 73.2911 40.5357 73.0019 40.5357C72.7127 40.5357 72.4235 40.4252 72.2036 40.2053L66.3066 34.3077C65.8663 33.8674 65.8663 33.1514 66.3066 32.711L67.7694 31.248L66.8472 30.3257L62.8594 34.3139C63.245 35.2706 63.4474 36.3017 63.4474 37.3645C63.4474 39.5429 62.5995 41.5911 61.0589 43.1319C60.87 43.3208 60.622 43.4155 60.3734 43.4155C60.1248 43.4155 59.8767 43.3208 59.6879 43.1319L56.3507 39.7943C55.394 40.8689 53.7198 40.9179 52.7355 39.9212C51.7186 38.9391 51.8212 37.1824 52.8623 36.3057L49.5251 32.9681C49.1474 32.5904 49.1474 31.9753 49.5251 31.5976C51.0658 30.0574 53.1138 29.2089 55.292 29.2089C57.4702 29.2089 59.5182 30.0574 61.0589 31.5976C61.6293 32.1687 62.1051 32.8091 62.4778 33.5003L69.6398 26.3376L67.9859 24.6829C67.0664 23.7633 65.5709 23.7633 64.6515 24.6829L60.1654 29.1694C60.0002 29.3346 59.7324 29.3346 59.5673 29.1694C59.4021 29.0042 59.4021 28.7364 59.5673 28.5712L62.3295 25.8087L61.4072 24.8864L59.9444 26.3494C59.7245 26.5698 59.4353 26.6798 59.1462 26.6798C58.857 26.6798 58.5678 26.5693 58.3479 26.3494L52.4508 20.4517C52.0106 20.0114 52.0106 19.2954 52.4508 18.8551L55.9747 15.3309C56.1877 15.1173 56.4713 15 56.7729 15C57.0745 15 57.358 15.1178 57.5711 15.3309L63.4682 21.228C63.6819 21.4412 63.7991 21.7247 63.7991 22.0264C63.7991 22.328 63.6813 22.6116 63.4682 22.8247L62.0054 24.2877L62.9276 25.21L64.0534 24.0841C65.3026 22.8354 67.3342 22.8354 68.5834 24.0841L68.978 24.4788L70.628 22.8286C71.1405 22.3161 71.9736 22.3161 72.4861 22.8286C72.9985 23.3411 72.9985 24.1743 72.4861 24.6868L70.5367 26.6364C70.5362 26.6369 70.5356 26.6369 70.5356 26.6369L67.4447 29.7281L68.367 30.6504L69.8298 29.1874C70.0429 28.9738 70.3264 28.8565 70.628 28.8565C70.9296 28.8565 71.2132 28.9743 71.4263 29.1874ZM59.0695 21.3526L60.733 19.6889L59.034 17.9897L57.3704 19.6534L59.0695 21.3526ZM56.7729 15.8457C56.6968 15.8457 56.6258 15.875 56.5722 15.9285L55.1093 17.3915L56.7729 19.0552L58.4364 17.3915L56.9736 15.9285C56.92 15.875 56.849 15.8457 56.7729 15.8457ZM53.0484 19.4527C52.9379 19.5632 52.9379 19.7431 53.0484 19.8536V19.8541L54.5112 21.3171L56.1748 19.6534L54.5112 17.9897L53.0484 19.4527ZM56.7729 20.251L55.1093 21.9147L56.8084 23.6139L58.4719 21.9502L56.7729 20.251ZM58.946 25.7518C59.0565 25.8623 59.2364 25.8623 59.3468 25.7518H59.3474L60.8103 24.2888L59.0701 22.5484L57.4065 24.2121L58.946 25.7518ZM59.6676 21.9502L61.4078 23.6906L62.8707 22.2276C62.9242 22.1741 62.9535 22.103 62.9535 22.0269C62.9535 21.9508 62.9242 21.8798 62.8707 21.8262L61.3311 20.2865L59.6676 21.9502ZM71.2256 23.4273L69.5756 25.0775L70.2374 25.7394L71.8874 24.0892C72.07 23.9071 72.07 23.61 71.8874 23.4273C71.7053 23.2447 71.4082 23.2447 71.2256 23.4273ZM53.3331 39.3242C53.965 39.9561 54.9938 39.9561 55.6257 39.3242L55.7525 39.1973L53.4599 36.9044C52.7175 37.5178 52.6729 38.6961 53.3331 39.3242ZM60.286 42.5349C60.3345 42.5833 60.4128 42.5828 60.4608 42.5349L60.4596 42.5343C61.8402 41.1536 62.6006 39.318 62.6006 37.365C62.6052 35.4053 61.8075 33.5387 60.4596 32.1958C59.0791 30.8151 57.243 30.0545 55.2909 30.0545C53.3387 30.0545 51.5026 30.8151 50.1221 32.1958C50.0922 32.2256 50.086 32.26 50.086 32.2831C50.086 32.3063 50.0922 32.3406 50.1221 32.3705L60.286 42.5349ZM70.6286 29.7022C70.5525 29.7022 70.4815 29.7315 70.4279 29.785L70.4285 29.7856L68.9656 31.2486L70.685 32.9681L72.3485 31.3044L70.8293 29.785C70.7757 29.7315 70.7047 29.7022 70.6286 29.7022ZM66.9041 33.3092C66.7936 33.4197 66.7936 33.5996 66.9041 33.7101H66.9035L68.4228 35.2294L70.0863 33.5657L68.367 31.8462L66.9041 33.3092ZM72.9455 31.902L69.0209 35.827L69.0203 35.8276L70.6839 37.4913L72.3474 35.8276L71.7944 35.2745C71.6292 35.1094 71.6292 34.8416 71.7944 34.6764C71.9596 34.5112 72.2273 34.5112 72.3925 34.6764L72.9455 35.2294L74.609 33.5657L72.9455 31.902ZM72.8012 39.6077C72.9117 39.7182 73.0915 39.7182 73.202 39.6077V39.6072L74.6649 38.1442L72.9455 36.4246L71.282 38.0884L72.8012 39.6077ZM75.263 37.5466L76.7258 36.0836L76.7264 36.0841C76.7799 36.0306 76.8093 35.9595 76.8093 35.8834C76.8093 35.8073 76.7799 35.7363 76.7264 35.6827L75.2072 34.1633L73.5436 35.827L75.263 37.5466ZM54.0219 43.132C54.9058 43.132 55.7677 42.8935 56.5158 42.4425L56.5152 42.4431C56.7154 42.3224 56.9752 42.3867 57.0959 42.5868C57.2165 42.787 57.1522 43.0469 56.9521 43.1675C56.0727 43.698 55.0591 43.9782 54.0219 43.9782C52.5044 43.9782 51.077 43.3868 50.0026 42.3128C48.153 40.4631 47.8023 37.6053 49.1496 35.3637C49.2697 35.1636 49.5296 35.0987 49.7297 35.2194C49.9298 35.3395 49.9941 35.5994 49.874 35.7995C48.7269 37.7073 49.0256 40.14 50.6001 41.7147C51.5145 42.6285 52.7298 43.132 54.0219 43.132Z"></path></mask><path fill-rule="evenodd" clip-rule="evenodd" d="M71.4263 29.1874L77.3234 35.0851L77.3239 35.0845C77.5376 35.2977 77.6548 35.5812 77.6548 35.8829C77.6548 36.1845 77.537 36.4681 77.3239 36.6812L73.8001 40.2053C73.5803 40.4258 73.2911 40.5357 73.0019 40.5357C72.7127 40.5357 72.4235 40.4252 72.2036 40.2053L66.3066 34.3077C65.8663 33.8674 65.8663 33.1514 66.3066 32.711L67.7694 31.248L66.8472 30.3257L62.8594 34.3139C63.245 35.2706 63.4474 36.3017 63.4474 37.3645C63.4474 39.5429 62.5995 41.5911 61.0589 43.1319C60.87 43.3208 60.622 43.4155 60.3734 43.4155C60.1248 43.4155 59.8767 43.3208 59.6879 43.1319L56.3507 39.7943C55.394 40.8689 53.7198 40.9179 52.7355 39.9212C51.7186 38.9391 51.8212 37.1824 52.8623 36.3057L49.5251 32.9681C49.1474 32.5904 49.1474 31.9753 49.5251 31.5976C51.0658 30.0574 53.1138 29.2089 55.292 29.2089C57.4702 29.2089 59.5182 30.0574 61.0589 31.5976C61.6293 32.1687 62.1051 32.8091 62.4778 33.5003L69.6398 26.3376L67.9859 24.6829C67.0664 23.7633 65.5709 23.7633 64.6515 24.6829L60.1654 29.1694C60.0002 29.3346 59.7324 29.3346 59.5673 29.1694C59.4021 29.0042 59.4021 28.7364 59.5673 28.5712L62.3295 25.8087L61.4072 24.8864L59.9444 26.3494C59.7245 26.5698 59.4353 26.6798 59.1462 26.6798C58.857 26.6798 58.5678 26.5693 58.3479 26.3494L52.4508 20.4517C52.0106 20.0114 52.0106 19.2954 52.4508 18.8551L55.9747 15.3309C56.1877 15.1173 56.4713 15 56.7729 15C57.0745 15 57.358 15.1178 57.5711 15.3309L63.4682 21.228C63.6819 21.4412 63.7991 21.7247 63.7991 22.0264C63.7991 22.328 63.6813 22.6116 63.4682 22.8247L62.0054 24.2877L62.9276 25.21L64.0534 24.0841C65.3026 22.8354 67.3342 22.8354 68.5834 24.0841L68.978 24.4788L70.628 22.8286C71.1405 22.3161 71.9736 22.3161 72.4861 22.8286C72.9985 23.3411 72.9985 24.1743 72.4861 24.6868L70.5367 26.6364C70.5362 26.6369 70.5356 26.6369 70.5356 26.6369L67.4447 29.7281L68.367 30.6504L69.8298 29.1874C70.0429 28.9738 70.3264 28.8565 70.628 28.8565C70.9296 28.8565 71.2132 28.9743 71.4263 29.1874ZM59.0695 21.3526L60.733 19.6889L59.034 17.9897L57.3704 19.6534L59.0695 21.3526ZM56.7729 15.8457C56.6968 15.8457 56.6258 15.875 56.5722 15.9285L55.1093 17.3915L56.7729 19.0552L58.4364 17.3915L56.9736 15.9285C56.92 15.875 56.849 15.8457 56.7729 15.8457ZM53.0484 19.4527C52.9379 19.5632 52.9379 19.7431 53.0484 19.8536V19.8541L54.5112 21.3171L56.1748 19.6534L54.5112 17.9897L53.0484 19.4527ZM56.7729 20.251L55.1093 21.9147L56.8084 23.6139L58.4719 21.9502L56.7729 20.251ZM58.946 25.7518C59.0565 25.8623 59.2364 25.8623 59.3468 25.7518H59.3474L60.8103 24.2888L59.0701 22.5484L57.4065 24.2121L58.946 25.7518ZM59.6676 21.9502L61.4078 23.6906L62.8707 22.2276C62.9242 22.1741 62.9535 22.103 62.9535 22.0269C62.9535 21.9508 62.9242 21.8798 62.8707 21.8262L61.3311 20.2865L59.6676 21.9502ZM71.2256 23.4273L69.5756 25.0775L70.2374 25.7394L71.8874 24.0892C72.07 23.9071 72.07 23.61 71.8874 23.4273C71.7053 23.2447 71.4082 23.2447 71.2256 23.4273ZM53.3331 39.3242C53.965 39.9561 54.9938 39.9561 55.6257 39.3242L55.7525 39.1973L53.4599 36.9044C52.7175 37.5178 52.6729 38.6961 53.3331 39.3242ZM60.286 42.5349C60.3345 42.5833 60.4128 42.5828 60.4608 42.5349L60.4596 42.5343C61.8402 41.1536 62.6006 39.318 62.6006 37.365C62.6052 35.4053 61.8075 33.5387 60.4596 32.1958C59.0791 30.8151 57.243 30.0545 55.2909 30.0545C53.3387 30.0545 51.5026 30.8151 50.1221 32.1958C50.0922 32.2256 50.086 32.26 50.086 32.2831C50.086 32.3063 50.0922 32.3406 50.1221 32.3705L60.286 42.5349ZM70.6286 29.7022C70.5525 29.7022 70.4815 29.7315 70.4279 29.785L70.4285 29.7856L68.9656 31.2486L70.685 32.9681L72.3485 31.3044L70.8293 29.785C70.7757 29.7315 70.7047 29.7022 70.6286 29.7022ZM66.9041 33.3092C66.7936 33.4197 66.7936 33.5996 66.9041 33.7101H66.9035L68.4228 35.2294L70.0863 33.5657L68.367 31.8462L66.9041 33.3092ZM72.9455 31.902L69.0209 35.827L69.0203 35.8276L70.6839 37.4913L72.3474 35.8276L71.7944 35.2745C71.6292 35.1094 71.6292 34.8416 71.7944 34.6764C71.9596 34.5112 72.2273 34.5112 72.3925 34.6764L72.9455 35.2294L74.609 33.5657L72.9455 31.902ZM72.8012 39.6077C72.9117 39.7182 73.0915 39.7182 73.202 39.6077V39.6072L74.6649 38.1442L72.9455 36.4246L71.282 38.0884L72.8012 39.6077ZM75.263 37.5466L76.7258 36.0836L76.7264 36.0841C76.7799 36.0306 76.8093 35.9595 76.8093 35.8834C76.8093 35.8073 76.7799 35.7363 76.7264 35.6827L75.2072 34.1633L73.5436 35.827L75.263 37.5466ZM54.0219 43.132C54.9058 43.132 55.7677 42.8935 56.5158 42.4425L56.5152 42.4431C56.7154 42.3224 56.9752 42.3867 57.0959 42.5868C57.2165 42.787 57.1522 43.0469 56.9521 43.1675C56.0727 43.698 55.0591 43.9782 54.0219 43.9782C52.5044 43.9782 51.077 43.3868 50.0026 42.3128C48.153 40.4631 47.8023 37.6053 49.1496 35.3637C49.2697 35.1636 49.5296 35.0987 49.7297 35.2194C49.9298 35.3395 49.9941 35.5994 49.874 35.7995C48.7269 37.7073 49.0256 40.14 50.6001 41.7147C51.5145 42.6285 52.7298 43.132 54.0219 43.132Z" fill="#52B5D9"></path><path d="M77.3234 35.0851L77.0405 35.3679L77.3234 35.6508L77.6062 35.368L77.3234 35.0851ZM71.4263 29.1874L71.1434 29.4703L71.1434 29.4703L71.4263 29.1874ZM77.3239 35.0845L77.6064 34.8013L77.3236 34.5192L77.0411 34.8017L77.3239 35.0845ZM77.3239 36.6812L77.6068 36.964L77.6068 36.964L77.3239 36.6812ZM73.8001 40.2053L73.5172 39.9225L73.5169 39.9229L73.8001 40.2053ZM72.2036 40.2053L71.9208 40.4882L71.9208 40.4882L72.2036 40.2053ZM66.3066 34.3077L66.0237 34.5905L66.0237 34.5905L66.3066 34.3077ZM66.3066 32.711L66.0237 32.4282L66.0237 32.4282L66.3066 32.711ZM67.7694 31.248L68.0523 31.5309L68.3351 31.248L68.0523 30.9652L67.7694 31.248ZM66.8472 30.3257L67.13 30.0429L66.8472 29.76L66.5643 30.0429L66.8472 30.3257ZM62.8594 34.3139L62.5765 34.031L62.3895 34.2181L62.4884 34.4634L62.8594 34.3139ZM61.0589 43.1319L61.3417 43.4147L61.3417 43.4147L61.0589 43.1319ZM59.6879 43.1319L59.9707 42.8491L59.9707 42.8491L59.6879 43.1319ZM56.3507 39.7943L56.6335 39.5115L56.3338 39.2117L56.0519 39.5284L56.3507 39.7943ZM52.7355 39.9212L53.0202 39.6401L53.0134 39.6335L52.7355 39.9212ZM52.8623 36.3057L53.12 36.6117L53.4533 36.331L53.1452 36.0229L52.8623 36.3057ZM49.5251 32.9681L49.808 32.6853L49.808 32.6853L49.5251 32.9681ZM49.5251 31.5976L49.2423 31.3147L49.2423 31.3148L49.5251 31.5976ZM61.0589 31.5976L61.3419 31.3149L61.3417 31.3147L61.0589 31.5976ZM62.4778 33.5003L62.1257 33.6901L62.3807 34.1632L62.7606 33.7832L62.4778 33.5003ZM69.6398 26.3376L69.9227 26.6204L70.2054 26.3376L69.9227 26.0548L69.6398 26.3376ZM67.9859 24.6829L68.2688 24.4001L68.2687 24.4L67.9859 24.6829ZM64.6515 24.6829L64.3686 24.4L64.3686 24.4L64.6515 24.6829ZM60.1654 29.1694L59.8825 28.8866L59.8825 28.8866L60.1654 29.1694ZM59.5673 28.5712L59.2844 28.2884L59.2844 28.2884L59.5673 28.5712ZM62.3295 25.8087L62.6123 26.0916L62.8951 25.8087L62.6123 25.5259L62.3295 25.8087ZM61.4072 24.8864L61.6901 24.6036L61.4072 24.3207L61.1244 24.6036L61.4072 24.8864ZM59.9444 26.3494L59.6615 26.0666L59.6612 26.0669L59.9444 26.3494ZM58.3479 26.3494L58.6308 26.0666L58.6308 26.0666L58.3479 26.3494ZM52.4508 20.4517L52.7337 20.1689L52.7337 20.1689L52.4508 20.4517ZM52.4508 18.8551L52.7337 19.1379L52.7337 19.1379L52.4508 18.8551ZM55.9747 15.3309L56.2575 15.6138L56.2579 15.6134L55.9747 15.3309ZM57.5711 15.3309L57.2883 15.6138L57.2883 15.6138L57.5711 15.3309ZM63.4682 21.228L63.1854 21.5109L63.1857 21.5112L63.4682 21.228ZM63.4682 22.8247L63.1854 22.5418L63.1854 22.5418L63.4682 22.8247ZM62.0054 24.2877L61.7225 24.0048L61.4397 24.2877L61.7225 24.5705L62.0054 24.2877ZM62.9276 25.21L62.6447 25.4928L62.9276 25.7757L63.2105 25.4928L62.9276 25.21ZM64.0534 24.0841L63.7706 23.8012L63.7705 23.8013L64.0534 24.0841ZM68.5834 24.0841L68.8663 23.8013L68.8662 23.8012L68.5834 24.0841ZM68.978 24.4788L68.6952 24.7616L68.978 25.0445L69.2609 24.7616L68.978 24.4788ZM70.628 22.8286L70.9109 23.1114L70.9109 23.1114L70.628 22.8286ZM72.4861 22.8286L72.7689 22.5458L72.7689 22.5458L72.4861 22.8286ZM72.4861 24.6868L72.7689 24.9696L72.7689 24.9696L72.4861 24.6868ZM70.5367 26.6364L70.2539 26.3535L70.2536 26.3538L70.5367 26.6364ZM70.5356 26.6369L70.5349 26.2369L70.3696 26.2372L70.2527 26.3541L70.5356 26.6369ZM67.4447 29.7281L67.1618 29.4453L66.879 29.7281L67.1618 30.0109L67.4447 29.7281ZM68.367 30.6504L68.0841 30.9333L68.367 31.2162L68.6498 30.9333L68.367 30.6504ZM69.8298 29.1874L70.1127 29.4703L70.113 29.4699L69.8298 29.1874ZM60.733 19.6889L61.0159 19.9718L61.2987 19.6889L61.0159 19.4061L60.733 19.6889ZM59.0695 21.3526L58.7866 21.6355L59.0695 21.9184L59.3523 21.6355L59.0695 21.3526ZM59.034 17.9897L59.3168 17.7069L59.034 17.424L58.7511 17.7069L59.034 17.9897ZM57.3704 19.6534L57.0876 19.3706L56.8048 19.6534L57.0876 19.9362L57.3704 19.6534ZM56.5722 15.9285L56.8551 16.2114L56.8551 16.2114L56.5722 15.9285ZM55.1093 17.3915L54.8265 17.1087L54.5437 17.3915L54.8265 17.6744L55.1093 17.3915ZM56.7729 19.0552L56.49 19.3381L56.7729 19.621L57.0557 19.3381L56.7729 19.0552ZM58.4364 17.3915L58.7193 17.6744L59.0021 17.3915L58.7193 17.1087L58.4364 17.3915ZM56.9736 15.9285L56.6907 16.2114L56.6907 16.2114L56.9736 15.9285ZM53.0484 19.8536H53.4484V19.6879L53.3312 19.5707L53.0484 19.8536ZM53.0484 19.4527L53.3312 19.7355L53.3312 19.7355L53.0484 19.4527ZM53.0484 19.8541H52.6484V20.0198L52.7655 20.1369L53.0484 19.8541ZM54.5112 21.3171L54.2284 21.5999L54.5112 21.8828L54.7941 21.5999L54.5112 21.3171ZM56.1748 19.6534L56.4576 19.9362L56.7404 19.6534L56.4576 19.3706L56.1748 19.6534ZM54.5112 17.9897L54.7941 17.7069L54.5112 17.424L54.2284 17.7069L54.5112 17.9897ZM55.1093 21.9147L54.8265 21.6319L54.5437 21.9147L54.8265 22.1976L55.1093 21.9147ZM56.7729 20.251L57.0557 19.9682L56.7729 19.6853L56.49 19.9682L56.7729 20.251ZM56.8084 23.6139L56.5255 23.8968L56.8084 24.1797L57.0913 23.8968L56.8084 23.6139ZM58.4719 21.9502L58.7548 22.2331L59.0376 21.9502L58.7548 21.6674L58.4719 21.9502ZM59.3468 25.7518V25.3518H59.1811L59.064 25.469L59.3468 25.7518ZM58.946 25.7518L59.2289 25.469L59.2289 25.469L58.946 25.7518ZM59.3474 25.7518V26.1518H59.5131L59.6303 26.0346L59.3474 25.7518ZM60.8103 24.2888L61.0931 24.5716L61.3759 24.2888L61.0931 24.006L60.8103 24.2888ZM59.0701 22.5484L59.3529 22.2656L59.0701 21.9827L58.7872 22.2656L59.0701 22.5484ZM57.4065 24.2121L57.1237 23.9293L56.8409 24.2121L57.1237 24.4949L57.4065 24.2121ZM61.4078 23.6906L61.125 23.9734L61.4078 24.2563L61.6907 23.9734L61.4078 23.6906ZM59.6676 21.9502L59.3847 21.6674L59.1019 21.9502L59.3847 22.2331L59.6676 21.9502ZM62.8707 22.2276L63.1535 22.5104L63.1535 22.5104L62.8707 22.2276ZM62.8707 21.8262L63.1535 21.5434L63.1535 21.5434L62.8707 21.8262ZM61.3311 20.2865L61.614 20.0037L61.3311 19.7208L61.0483 20.0037L61.3311 20.2865ZM69.5756 25.0775L69.2927 24.7947L69.0099 25.0775L69.2927 25.3603L69.5756 25.0775ZM71.2256 23.4273L71.5084 23.7102L71.5084 23.7102L71.2256 23.4273ZM70.2374 25.7394L69.9545 26.0222L70.2374 26.3051L70.5202 26.0222L70.2374 25.7394ZM71.8874 24.0892L71.605 23.8059L71.6045 23.8064L71.8874 24.0892ZM71.8874 23.4273L71.6041 23.7097L71.6045 23.7102L71.8874 23.4273ZM55.6257 39.3242L55.9086 39.607L55.9086 39.607L55.6257 39.3242ZM53.3331 39.3242L53.616 39.0412L53.6088 39.0344L53.3331 39.3242ZM55.7525 39.1973L56.0354 39.4801L56.3182 39.1973L56.0354 38.9145L55.7525 39.1973ZM53.4599 36.9044L53.7427 36.6216L53.4855 36.3644L53.2051 36.5961L53.4599 36.9044ZM60.4608 42.5349L60.7436 42.8177L61.1364 42.4248L60.6393 42.1769L60.4608 42.5349ZM60.286 42.5349L60.5689 42.252L60.5688 42.252L60.286 42.5349ZM60.4596 42.5343L60.1768 42.2515L59.784 42.6443L60.2811 42.8923L60.4596 42.5343ZM62.6006 37.365L62.2006 37.3641V37.365H62.6006ZM60.4596 32.1958L60.1768 32.4786L60.1773 32.4791L60.4596 32.1958ZM50.1221 32.1958L49.8392 31.9129L49.8392 31.9129L50.1221 32.1958ZM50.1221 32.3705L49.8392 32.6534L49.8392 32.6534L50.1221 32.3705ZM70.4279 29.785L70.1451 29.5022L69.8623 29.7851L70.1451 30.0679L70.4279 29.785ZM70.4285 29.7856L70.7113 30.0684L70.9942 29.7856L70.7113 29.5028L70.4285 29.7856ZM68.9656 31.2486L68.6828 30.9658L68.4 31.2486L68.6828 31.5314L68.9656 31.2486ZM70.685 32.9681L70.4021 33.251L70.685 33.5338L70.9678 33.251L70.685 32.9681ZM72.3485 31.3044L72.6314 31.5873L72.9142 31.3044L72.6314 31.0216L72.3485 31.3044ZM70.8293 29.785L70.5464 30.0679L70.5464 30.0679L70.8293 29.785ZM66.9041 33.7101V34.1101H67.8697L67.187 33.4272L66.9041 33.7101ZM66.9041 33.3092L66.6212 33.0264L66.6212 33.0264L66.9041 33.3092ZM66.9035 33.7101V33.3101H65.9379L66.6207 33.9929L66.9035 33.7101ZM68.4228 35.2294L68.1399 35.5123L68.4228 35.7952L68.7056 35.5123L68.4228 35.2294ZM70.0863 33.5657L70.3692 33.8486L70.652 33.5657L70.3692 33.2829L70.0863 33.5657ZM68.367 31.8462L68.6498 31.5634L68.367 31.2805L68.0841 31.5634L68.367 31.8462ZM69.0209 35.827L69.3032 36.1104L69.3037 36.1099L69.0209 35.827ZM72.9455 31.902L73.2284 31.6192L72.9455 31.3363L72.6626 31.6192L72.9455 31.902ZM69.0203 35.8276L68.7379 35.5443L68.4542 35.8271L68.7375 36.1104L69.0203 35.8276ZM70.6839 37.4913L70.401 37.7741L70.6839 38.057L70.9667 37.7741L70.6839 37.4913ZM72.3474 35.8276L72.6302 36.1104L72.9131 35.8276L72.6302 35.5448L72.3474 35.8276ZM71.7944 35.2745L72.0772 34.9917L72.0772 34.9917L71.7944 35.2745ZM71.7944 34.6764L72.0772 34.9592L72.0772 34.9592L71.7944 34.6764ZM72.3925 34.6764L72.1096 34.9592L72.1096 34.9592L72.3925 34.6764ZM72.9455 35.2294L72.6626 35.5123L72.9455 35.7952L73.2284 35.5123L72.9455 35.2294ZM74.609 33.5657L74.8919 33.8486L75.1747 33.5657L74.8919 33.2829L74.609 33.5657ZM73.202 39.6077L73.4849 39.8906L73.602 39.7734V39.6077H73.202ZM72.8012 39.6077L72.5183 39.8906L72.5183 39.8906L72.8012 39.6077ZM73.202 39.6072L72.9191 39.3243L72.802 39.4415V39.6072H73.202ZM74.6649 38.1442L74.9477 38.427L75.2305 38.1442L74.9477 37.8613L74.6649 38.1442ZM72.9455 36.4246L73.2284 36.1418L72.9455 35.8589L72.6626 36.1418L72.9455 36.4246ZM71.282 38.0884L70.9991 37.8055L70.7163 38.0884L70.9991 38.3712L71.282 38.0884ZM76.7258 36.0836L77.0082 35.8002L76.7253 35.5183L76.443 35.8007L76.7258 36.0836ZM75.263 37.5466L74.9801 37.8294L75.263 38.1123L75.5458 37.8294L75.263 37.5466ZM76.7264 36.0841L76.444 36.3674L76.7269 36.6493L77.0092 36.367L76.7264 36.0841ZM76.7264 35.6827L76.4435 35.9655L76.4435 35.9655L76.7264 35.6827ZM75.2072 34.1633L75.49 33.8805L75.2072 33.5976L74.9243 33.8805L75.2072 34.1633ZM73.5436 35.827L73.2608 35.5442L72.978 35.827L73.2608 36.1099L73.5436 35.827ZM56.5158 42.4425L56.7984 42.7256L56.3093 42.0999L56.5158 42.4425ZM56.5152 42.4431L56.2326 42.16L56.7218 42.7856L56.5152 42.4431ZM57.0959 42.5868L56.7533 42.7933L56.7533 42.7933L57.0959 42.5868ZM56.9521 43.1675L56.7456 42.8249L56.7455 42.825L56.9521 43.1675ZM50.0026 42.3128L49.7197 42.5957L49.7198 42.5957L50.0026 42.3128ZM49.1496 35.3637L49.4925 35.5698L49.4927 35.5695L49.1496 35.3637ZM49.7297 35.2194L49.5232 35.5619L49.5239 35.5624L49.7297 35.2194ZM49.874 35.7995L50.2168 36.0056L50.217 36.0053L49.874 35.7995ZM50.6001 41.7147L50.3172 41.9975L50.3173 41.9976L50.6001 41.7147ZM77.6062 34.8023L71.7091 28.9046L71.1434 29.4703L77.0405 35.3679L77.6062 34.8023ZM77.0411 34.8017L77.0405 34.8023L77.6062 35.368L77.6068 35.3674L77.0411 34.8017ZM78.0548 35.8829C78.0548 35.4753 77.8956 35.0898 77.6064 34.8013L77.0414 35.3678C77.1796 35.5056 77.2548 35.6871 77.2548 35.8829H78.0548ZM77.6068 36.964C77.8947 36.6761 78.0548 36.2908 78.0548 35.8829H77.2548C77.2548 36.0781 77.1794 36.26 77.0411 36.3983L77.6068 36.964ZM74.083 40.4882L77.6068 36.964L77.0411 36.3983L73.5172 39.9225L74.083 40.4882ZM73.0019 40.9357C73.3923 40.9357 73.7849 40.787 74.0833 40.4878L73.5169 39.9229C73.3756 40.0646 73.1898 40.1357 73.0019 40.1357V40.9357ZM71.9208 40.4882C72.2187 40.7861 72.611 40.9357 73.0019 40.9357V40.1357C72.8144 40.1357 72.6283 40.0643 72.4865 39.9225L71.9208 40.4882ZM66.0237 34.5905L71.9208 40.4882L72.4865 39.9225L66.5894 34.0248L66.0237 34.5905ZM66.0237 32.4282C65.4272 33.0247 65.4272 33.994 66.0237 34.5905L66.5894 34.0248C66.3053 33.7407 66.3053 33.278 66.5894 32.9939L66.0237 32.4282ZM67.4866 30.9652L66.0237 32.4282L66.5894 32.9939L68.0523 31.5309L67.4866 30.9652ZM66.5643 30.6085L67.4866 31.5309L68.0523 30.9652L67.13 30.0429L66.5643 30.6085ZM63.1422 34.5967L67.13 30.6085L66.5643 30.0429L62.5765 34.031L63.1422 34.5967ZM63.8474 37.3645C63.8474 36.2507 63.6352 35.1687 63.2304 34.1643L62.4884 34.4634C62.8548 35.3724 63.0474 36.3528 63.0474 37.3645H63.8474ZM61.3417 43.4147C62.9574 41.7989 63.8474 39.6489 63.8474 37.3645H63.0474C63.0474 39.4369 62.2416 41.3833 60.776 42.8491L61.3417 43.4147ZM60.3734 43.8155C60.7236 43.8155 61.0747 43.6817 61.3417 43.4147L60.776 42.8491C60.6653 42.9598 60.5204 43.0155 60.3734 43.0155V43.8155ZM59.405 43.4147C59.672 43.6817 60.0232 43.8155 60.3734 43.8155V43.0155C60.2264 43.0155 60.0815 42.9598 59.9707 42.8491L59.405 43.4147ZM56.0678 40.0772L59.405 43.4147L59.9707 42.8491L56.6335 39.5115L56.0678 40.0772ZM52.4509 40.2022C53.6015 41.3675 55.543 41.3031 56.6494 40.0603L56.0519 39.5284C55.245 40.4347 53.838 40.4684 53.0201 39.6401L52.4509 40.2022ZM52.6047 35.9997C51.3874 37.0247 51.2652 39.0573 52.4576 40.2089L53.0134 39.6335C52.1719 38.8209 52.255 37.34 53.12 36.6117L52.6047 35.9997ZM49.2423 33.251L52.5795 36.5885L53.1452 36.0229L49.808 32.6853L49.2423 33.251ZM49.2423 31.3148C48.7084 31.8487 48.7084 32.717 49.2423 33.251L49.808 32.6853C49.5865 32.4638 49.5865 32.1019 49.808 31.8804L49.2423 31.3148ZM55.292 28.8089C53.0076 28.8089 50.8579 29.6995 49.2423 31.3147L49.8079 31.8805C51.2736 30.4152 53.2199 29.6089 55.292 29.6089V28.8089ZM61.3417 31.3147C59.726 29.6995 57.5763 28.8089 55.292 28.8089V29.6089C57.3641 29.6089 59.3104 30.4152 60.7761 31.8805L61.3417 31.3147ZM62.8298 33.3105C62.4387 32.5849 61.9395 31.9132 61.3419 31.3149L60.7759 31.8803C61.3192 32.4242 61.7716 33.0334 62.1257 33.6901L62.8298 33.3105ZM69.357 26.0547L62.1949 33.2175L62.7606 33.7832L69.9227 26.6204L69.357 26.0547ZM67.703 24.9656L69.3569 26.6203L69.9227 26.0548L68.2688 24.4001L67.703 24.9656ZM64.9343 24.9657C65.6975 24.2024 66.9398 24.2024 67.703 24.9657L68.2687 24.4C67.1931 23.3243 65.4443 23.3243 64.3686 24.4L64.9343 24.9657ZM60.4482 29.4522L64.9343 24.9657L64.3686 24.4L59.8825 28.8866L60.4482 29.4522ZM59.2844 29.4522C59.6058 29.7736 60.1268 29.7736 60.4482 29.4522L59.8825 28.8866C59.8735 28.8955 59.8591 28.8955 59.8501 28.8866L59.2844 29.4522ZM59.2844 28.2884C58.963 28.6098 58.963 29.1308 59.2844 29.4522L59.8501 28.8866C59.8411 28.8776 59.8411 28.863 59.8501 28.8541L59.2844 28.2884ZM62.0466 25.5259L59.2844 28.2884L59.8501 28.8541L62.6123 26.0916L62.0466 25.5259ZM61.1244 25.1692L62.0466 26.0916L62.6123 25.5259L61.6901 24.6036L61.1244 25.1692ZM60.2272 26.6322L61.6901 25.1692L61.1244 24.6036L59.6615 26.0666L60.2272 26.6322ZM59.1462 27.0798C59.5366 27.0798 59.9292 26.931 60.2276 26.6319L59.6612 26.0669C59.5198 26.2086 59.3341 26.2798 59.1462 26.2798V27.0798ZM58.0651 26.6322C58.363 26.9302 58.7553 27.0798 59.1462 27.0798V26.2798C58.9587 26.2798 58.7726 26.2084 58.6308 26.0666L58.0651 26.6322ZM52.168 20.7346L58.0651 26.6322L58.6308 26.0666L52.7337 20.1689L52.168 20.7346ZM52.168 18.5723C51.5715 19.1688 51.5715 20.138 52.168 20.7346L52.7337 20.1689C52.4496 19.8848 52.4496 19.422 52.7337 19.1379L52.168 18.5723ZM55.6918 15.0481L52.168 18.5723L52.7337 19.1379L56.2575 15.6138L55.6918 15.0481ZM56.7729 14.6C56.3654 14.6 55.9798 14.7593 55.6914 15.0485L56.2579 15.6134C56.3957 15.4752 56.5772 15.4 56.7729 15.4V14.6ZM57.854 15.0481C57.5661 14.7602 57.1809 14.6 56.7729 14.6V15.4C56.9681 15.4 57.15 15.4755 57.2883 15.6138L57.854 15.0481ZM63.7511 20.9452L57.854 15.0481L57.2883 15.6138L63.1854 21.5109L63.7511 20.9452ZM64.1991 22.0264C64.1991 21.6188 64.0398 21.2332 63.7507 20.9448L63.1857 21.5112C63.3239 21.6491 63.3991 21.8306 63.3991 22.0264H64.1991ZM63.7511 23.1075C64.039 22.8196 64.1991 22.4343 64.1991 22.0264H63.3991C63.3991 22.2216 63.3236 22.4035 63.1854 22.5418L63.7511 23.1075ZM62.2882 24.5705L63.7511 23.1075L63.1854 22.5418L61.7225 24.0048L62.2882 24.5705ZM63.2105 24.9272L62.2882 24.0048L61.7225 24.5705L62.6447 25.4928L63.2105 24.9272ZM63.7705 23.8013L62.6447 24.9272L63.2105 25.4928L64.3362 24.367L63.7705 23.8013ZM68.8662 23.8012C67.4608 22.3963 65.176 22.3963 63.7706 23.8012L64.3361 24.367C65.4292 23.2744 67.2076 23.2744 68.3006 24.367L68.8662 23.8012ZM69.2609 24.196L68.8663 23.8013L68.3006 24.367L68.6952 24.7616L69.2609 24.196ZM70.3452 22.5458L68.6952 24.196L69.2609 24.7616L70.9109 23.1114L70.3452 22.5458ZM72.7689 22.5458C72.1003 21.8771 71.0138 21.8771 70.3452 22.5458L70.9109 23.1114C71.2671 22.7552 71.847 22.7552 72.2032 23.1114L72.7689 22.5458ZM72.7689 24.9696C73.4375 24.301 73.4375 23.2145 72.7689 22.5458L72.2032 23.1114C72.5594 23.4677 72.5594 24.0477 72.2032 24.404L72.7689 24.9696ZM70.8196 26.9192L72.7689 24.9696L72.2032 24.404L70.2539 26.3535L70.8196 26.9192ZM70.5356 26.6369C70.5363 27.0369 70.5365 27.0369 70.5367 27.0369C70.5367 27.0369 70.5369 27.0369 70.537 27.0369C70.5373 27.0369 70.5376 27.0369 70.5378 27.0369C70.5384 27.0369 70.5389 27.0369 70.5394 27.0369C70.5405 27.0369 70.5415 27.0369 70.5426 27.0369C70.5447 27.0368 70.5469 27.0368 70.5491 27.0367C70.5535 27.0365 70.5581 27.0363 70.5628 27.036C70.5722 27.0354 70.5822 27.0343 70.5928 27.0328C70.6138 27.0298 70.6375 27.0247 70.6628 27.0162C70.7147 26.9988 70.7706 26.9682 70.8198 26.919L70.2536 26.3538C70.3023 26.3051 70.3576 26.2747 70.4091 26.2575C70.4342 26.2491 70.4577 26.244 70.4786 26.241C70.4891 26.2395 70.4991 26.2385 70.5084 26.2378C70.5131 26.2375 70.5177 26.2373 70.5221 26.2371C70.5243 26.2371 70.5264 26.237 70.5286 26.237C70.5297 26.237 70.5307 26.2369 70.5318 26.2369C70.5323 26.2369 70.5328 26.2369 70.5334 26.2369C70.5336 26.2369 70.5339 26.2369 70.5341 26.2369C70.5343 26.2369 70.5345 26.2369 70.5345 26.2369C70.5347 26.2369 70.5349 26.2369 70.5356 26.6369ZM67.7276 30.0109L70.8184 26.9197L70.2527 26.3541L67.1618 29.4453L67.7276 30.0109ZM68.6498 30.3676L67.7276 29.4453L67.1618 30.0109L68.0841 30.9333L68.6498 30.3676ZM69.547 28.9046L68.0841 30.3676L68.6498 30.9333L70.1127 29.4703L69.547 28.9046ZM70.628 28.4565C70.2205 28.4565 69.835 28.6158 69.5466 28.905L70.113 29.4699C70.2508 29.3317 70.4324 29.2565 70.628 29.2565V28.4565ZM71.7091 28.9046C71.4212 28.6167 71.036 28.4565 70.628 28.4565V29.2565C70.8232 29.2565 71.0051 29.332 71.1434 29.4703L71.7091 28.9046ZM60.4502 19.4061L58.7866 21.0698L59.3523 21.6355L61.0159 19.9718L60.4502 19.4061ZM58.7511 18.2725L60.4502 19.9718L61.0159 19.4061L59.3168 17.7069L58.7511 18.2725ZM57.6533 19.9362L59.3168 18.2725L58.7511 17.7069L57.0876 19.3706L57.6533 19.9362ZM59.3523 21.0698L57.6533 19.3706L57.0876 19.9362L58.7866 21.6355L59.3523 21.0698ZM56.8551 16.2114C56.8331 16.2333 56.8022 16.2457 56.7729 16.2457V15.4457C56.5914 15.4457 56.4184 15.5167 56.2893 15.6457L56.8551 16.2114ZM55.3922 17.6744L56.8551 16.2114L56.2893 15.6457L54.8265 17.1087L55.3922 17.6744ZM57.0557 18.7724L55.3922 17.1087L54.8265 17.6744L56.49 19.3381L57.0557 18.7724ZM58.1536 17.1087L56.49 18.7724L57.0557 19.3381L58.7193 17.6744L58.1536 17.1087ZM56.6907 16.2114L58.1536 17.6744L58.7193 17.1087L57.2564 15.6457L56.6907 16.2114ZM56.7729 16.2457C56.7436 16.2457 56.7126 16.2333 56.6907 16.2114L57.2564 15.6457C57.1274 15.5167 56.9544 15.4457 56.7729 15.4457V16.2457ZM53.3312 19.5707C53.3769 19.6164 53.3769 19.6898 53.3312 19.7355L52.7655 19.1699C52.4988 19.4366 52.4988 19.8697 52.7655 20.1364L53.3312 19.5707ZM53.4484 19.8541V19.8536H52.6484V19.8541H53.4484ZM54.7941 21.0343L53.3312 19.5713L52.7655 20.1369L54.2284 21.5999L54.7941 21.0343ZM55.8919 19.3706L54.2284 21.0343L54.7941 21.5999L56.4576 19.9362L55.8919 19.3706ZM54.2284 18.2725L55.8919 19.9362L56.4576 19.3706L54.7941 17.7069L54.2284 18.2725ZM53.3312 19.7355L54.7941 18.2725L54.2284 17.7069L52.7655 19.1699L53.3312 19.7355ZM55.3922 22.1976L57.0557 20.5338L56.49 19.9682L54.8265 21.6319L55.3922 22.1976ZM57.0913 23.3311L55.3922 21.6319L54.8265 22.1976L56.5255 23.8968L57.0913 23.3311ZM58.1891 21.6674L56.5255 23.3311L57.0913 23.8968L58.7548 22.2331L58.1891 21.6674ZM56.49 20.5338L58.1891 22.2331L58.7548 21.6674L57.0557 19.9682L56.49 20.5338ZM59.064 25.469C59.1097 25.4232 59.1832 25.4232 59.2289 25.469L58.6632 26.0346C58.9299 26.3013 59.363 26.3013 59.6297 26.0346L59.064 25.469ZM59.3474 25.3518H59.3468V26.1518H59.3474V25.3518ZM60.5274 24.006L59.0645 25.469L59.6303 26.0346L61.0931 24.5716L60.5274 24.006ZM58.7872 22.8312L60.5274 24.5716L61.0931 24.006L59.3529 22.2656L58.7872 22.8312ZM57.6894 24.4949L59.3529 22.8312L58.7872 22.2656L57.1237 23.9293L57.6894 24.4949ZM59.2289 25.469L57.6894 23.9293L57.1237 24.4949L58.6632 26.0346L59.2289 25.469ZM61.6907 23.4078L59.9505 21.6674L59.3847 22.2331L61.125 23.9734L61.6907 23.4078ZM62.5878 21.9448L61.125 23.4078L61.6907 23.9734L63.1535 22.5104L62.5878 21.9448ZM62.5535 22.0269C62.5535 21.9976 62.5659 21.9667 62.5878 21.9448L63.1535 22.5104C63.2826 22.3814 63.3535 22.2084 63.3535 22.0269H62.5535ZM62.5878 22.109C62.5659 22.0871 62.5535 22.0562 62.5535 22.0269H63.3535C63.3535 21.8454 63.2826 21.6724 63.1535 21.5434L62.5878 22.109ZM61.0483 20.5694L62.5878 22.109L63.1535 21.5434L61.614 20.0037L61.0483 20.5694ZM59.9505 22.2331L61.614 20.5694L61.0483 20.0037L59.3847 21.6674L59.9505 22.2331ZM69.8584 25.3603L71.5084 23.7102L70.9427 23.1445L69.2927 24.7947L69.8584 25.3603ZM70.5202 25.4566L69.8584 24.7947L69.2927 25.3603L69.9545 26.0222L70.5202 25.4566ZM71.6045 23.8064L69.9545 25.4566L70.5202 26.0222L72.1703 24.372L71.6045 23.8064ZM71.6045 23.7102C71.6312 23.7369 71.6306 23.7804 71.605 23.8059L72.1698 24.3725C72.5095 24.0338 72.5088 23.4831 72.1703 23.1445L71.6045 23.7102ZM71.5084 23.7102C71.5351 23.6835 71.5786 23.6841 71.6041 23.7097L72.1707 23.1449C71.8321 22.8052 71.2813 22.8059 70.9427 23.1445L71.5084 23.7102ZM55.3429 39.0413C54.8671 39.5171 54.0916 39.5171 53.6159 39.0413L53.0502 39.607C53.8383 40.3952 55.1204 40.3952 55.9086 39.607L55.3429 39.0413ZM55.4697 38.9145L55.3429 39.0413L55.9086 39.607L56.0354 39.4801L55.4697 38.9145ZM53.177 37.1872L55.4697 39.4801L56.0354 38.9145L53.7427 36.6216L53.177 37.1872ZM53.6088 39.0344C53.1297 38.5786 53.1493 37.6799 53.7147 37.2128L53.2051 36.5961C52.2856 37.3557 52.2161 38.8136 53.0573 39.6139L53.6088 39.0344ZM60.1779 42.252C60.285 42.1449 60.4599 42.1431 60.5689 42.252L60.0031 42.8177C60.209 43.0236 60.5407 43.0206 60.7436 42.8177L60.1779 42.252ZM60.2811 42.8923L60.2822 42.8928L60.6393 42.1769L60.6381 42.1763L60.2811 42.8923ZM62.2006 37.365C62.2006 39.2119 61.4823 40.9458 60.1768 42.2515L60.7425 42.8171C62.198 41.3614 63.0006 39.424 63.0006 37.365H62.2006ZM60.1773 32.4791C61.4509 33.7481 62.2049 35.5129 62.2006 37.3641L63.0006 37.3659C63.0054 35.2978 62.1641 33.3293 60.7419 31.9124L60.1773 32.4791ZM55.2909 30.4545C57.1369 30.4545 58.8712 31.1729 60.1768 32.4786L60.7425 31.9129C59.2869 30.4572 57.3491 29.6545 55.2909 29.6545V30.4545ZM50.405 32.4786C51.7105 31.1729 53.4448 30.4545 55.2909 30.4545V29.6545C53.2326 29.6545 51.2948 30.4572 49.8392 31.9129L50.405 32.4786ZM50.486 32.2831C50.486 32.33 50.4723 32.4113 50.405 32.4786L49.8392 31.9129C49.7122 32.04 49.686 32.1901 49.686 32.2831H50.486ZM50.405 32.0877C50.4723 32.155 50.486 32.2363 50.486 32.2831H49.686C49.686 32.3762 49.7122 32.5263 49.8392 32.6534L50.405 32.0877ZM60.5688 42.252L50.4049 32.0877L49.8392 32.6534L60.0032 42.8177L60.5688 42.252ZM70.7108 30.0679C70.6888 30.0898 70.6579 30.1022 70.6286 30.1022V29.3022C70.4471 29.3022 70.2741 29.3732 70.1451 29.5022L70.7108 30.0679ZM70.7113 29.5028L70.7108 29.5022L70.1451 30.0679L70.1456 30.0685L70.7113 29.5028ZM69.2485 31.5314L70.7113 30.0684L70.1456 29.5028L68.6828 30.9658L69.2485 31.5314ZM70.9678 32.6853L69.2485 30.9658L68.6828 31.5314L70.4021 33.251L70.9678 32.6853ZM72.0657 31.0216L70.4021 32.6853L70.9678 33.251L72.6314 31.5873L72.0657 31.0216ZM70.5464 30.0679L72.0657 31.5873L72.6314 31.0216L71.1121 29.5022L70.5464 30.0679ZM70.6286 30.1022C70.5993 30.1022 70.5684 30.0898 70.5464 30.0679L71.1122 29.5022C70.9831 29.3732 70.8101 29.3022 70.6286 29.3022V30.1022ZM67.187 33.4272C67.2327 33.4729 67.2327 33.5463 67.187 33.592L66.6212 33.0264C66.3546 33.2931 66.3546 33.7262 66.6212 33.9929L67.187 33.4272ZM66.9035 34.1101H66.9041V33.3101H66.9035V34.1101ZM68.7056 34.9466L67.1864 33.4272L66.6207 33.9929L68.1399 35.5123L68.7056 34.9466ZM69.8034 33.2829L68.1399 34.9466L68.7056 35.5123L70.3692 33.8486L69.8034 33.2829ZM68.0841 32.129L69.8034 33.8486L70.3692 33.2829L68.6498 31.5634L68.0841 32.129ZM67.187 33.592L68.6498 32.129L68.0841 31.5634L66.6212 33.0264L67.187 33.592ZM69.3037 36.1099L73.2284 32.1849L72.6626 31.6192L68.738 35.5442L69.3037 36.1099ZM69.3027 36.1109L69.3032 36.1104L68.7385 35.5437L68.7379 35.5443L69.3027 36.1109ZM70.9667 37.2085L69.3032 35.5448L68.7375 36.1104L70.401 37.7741L70.9667 37.2085ZM72.0645 35.5448L70.401 37.2085L70.9667 37.7741L72.6302 36.1104L72.0645 35.5448ZM71.5115 35.5574L72.0645 36.1104L72.6302 35.5448L72.0772 34.9917L71.5115 35.5574ZM71.5115 34.3935C71.1902 34.7149 71.1902 35.236 71.5115 35.5574L72.0772 34.9917C72.0683 34.9827 72.0683 34.9682 72.0772 34.9592L71.5115 34.3935ZM72.6753 34.3935C72.354 34.0721 71.8329 34.0721 71.5115 34.3935L72.0772 34.9592C72.0862 34.9502 72.1007 34.9502 72.1096 34.9592L72.6753 34.3935ZM73.2284 34.9466L72.6753 34.3935L72.1096 34.9592L72.6626 35.5123L73.2284 34.9466ZM74.3262 33.2829L72.6626 34.9466L73.2284 35.5123L74.8919 33.8486L74.3262 33.2829ZM72.6626 32.1849L74.3262 33.8486L74.8919 33.2829L73.2284 31.6192L72.6626 32.1849ZM72.9191 39.3249C72.9649 39.2792 73.0383 39.2792 73.084 39.3249L72.5183 39.8906C72.785 40.1573 73.2181 40.1573 73.4849 39.8906L72.9191 39.3249ZM72.802 39.6072V39.6077H73.602V39.6072H72.802ZM74.382 37.8613L72.9191 39.3243L73.4849 39.89L74.9477 38.427L74.382 37.8613ZM72.6626 36.7075L74.382 38.427L74.9477 37.8613L73.2284 36.1418L72.6626 36.7075ZM71.5648 38.3712L73.2284 36.7075L72.6626 36.1418L70.9991 37.8055L71.5648 38.3712ZM73.084 39.3249L71.5648 37.8055L70.9991 38.3712L72.5183 39.8906L73.084 39.3249ZM76.443 35.8007L74.9801 37.2637L75.5458 37.8294L77.0087 36.3664L76.443 35.8007ZM77.0087 35.8008L77.0082 35.8002L76.4435 36.3669L76.444 36.3674L77.0087 35.8008ZM76.4093 35.8834C76.4093 35.8541 76.4216 35.8232 76.4435 35.8013L77.0092 36.367C77.1383 36.2379 77.2093 36.0649 77.2093 35.8834H76.4093ZM76.4435 35.9655C76.4216 35.9436 76.4093 35.9127 76.4093 35.8834H77.2093C77.2093 35.7019 77.1383 35.5289 77.0092 35.3999L76.4435 35.9655ZM74.9243 34.4462L76.4435 35.9655L77.0092 35.3999L75.49 33.8805L74.9243 34.4462ZM73.8265 36.1099L75.49 34.4462L74.9243 33.8805L73.2608 35.5442L73.8265 36.1099ZM75.5458 37.2637L73.8265 35.5442L73.2608 36.1099L74.9801 37.8294L75.5458 37.2637ZM56.3093 42.0999C55.6242 42.5129 54.8339 42.732 54.0219 42.732V43.532C54.9778 43.532 55.9112 43.2741 56.7223 42.785L56.3093 42.0999ZM56.7978 42.7261L56.7984 42.7256L56.2332 42.1594L56.2326 42.16L56.7978 42.7261ZM57.4384 42.3803C57.2037 41.9908 56.6979 41.8659 56.3087 42.1005L56.7218 42.7856C56.7329 42.7789 56.7468 42.7826 56.7533 42.7933L57.4384 42.3803ZM57.1586 43.5101C57.5482 43.2752 57.673 42.7694 57.4384 42.3803L56.7533 42.7933C56.76 42.8045 56.7563 42.8185 56.7456 42.8249L57.1586 43.5101ZM54.0219 44.3782C55.1311 44.3782 56.2162 44.0786 57.1587 43.51L56.7455 42.825C55.9292 43.3175 54.9872 43.5782 54.0219 43.5782V44.3782ZM49.7198 42.5957C50.8691 43.7446 52.3982 44.3782 54.0219 44.3782V43.5782C52.6105 43.5782 51.2849 43.029 50.2853 42.0299L49.7198 42.5957ZM48.8068 35.1576C47.3649 37.5567 47.7403 40.616 49.7197 42.5957L50.2854 42.03C48.5657 40.3101 48.2398 37.6539 49.4925 35.5698L48.8068 35.1576ZM49.9362 34.8768C49.5466 34.6419 49.0405 34.7681 48.8066 35.1579L49.4927 35.5695C49.4989 35.559 49.5126 35.5556 49.5232 35.5619L49.9362 34.8768ZM50.217 36.0053C50.4501 35.6168 50.3261 35.1108 49.9355 34.8764L49.5239 35.5624C49.5336 35.5682 49.5381 35.582 49.531 35.5937L50.217 36.0053ZM50.883 41.4318C49.4383 39.987 49.1644 37.7559 50.2168 36.0056L49.5312 35.5934C48.2893 37.6587 48.613 40.293 50.3172 41.9975L50.883 41.4318ZM54.0219 42.732C52.836 42.732 51.7223 42.2707 50.8829 41.4317L50.3173 41.9976C51.3066 42.9864 52.6237 43.532 54.0219 43.532V42.732Z" fill="#52B5D9" mask="url(#path-4-outside-1_329_6029)"></path></svg>